<svg width="1024" height="1024" viewBox="-100 -50 1224 1124" fill="none" xmlns="http://www.w3.org/2000/svg">
  <defs>
    <linearGradient id="goldGrad" x1="0" y1="0" x2="0" y2="1">
      <stop offset="0%" stop-color="#FFE88A"/>
      <stop offset="40%" stop-color="#D4A017"/>
      <stop offset="70%" stop-color="#C8961E"/>
      <stop offset="100%" stop-color="#8B6914"/>
    </linearGradient>
    <linearGradient id="goldShine" x1="0" y1="0" x2="1" y2="1">
      <stop offset="0%" stop-color="#FFF5C0"/>
      <stop offset="50%" stop-color="#D4A017"/>
      <stop offset="100%" stop-color="#8B6914"/>
    </linearGradient>
    <linearGradient id="purpleGrad" x1="0" y1="0" x2="0" y2="1">
      <stop offset="0%" stop-color="#9B59B6"/>
      <stop offset="100%" stop-color="#4A1A6B"/>
    </linearGradient>
    <linearGradient id="darkGrad" x1="0" y1="0" x2="0" y2="1">
      <stop offset="0%" stop-color="#2A2A2A"/>
      <stop offset="100%" stop-color="#0A0A0A"/>
    </linearGradient>
    <linearGradient id="ballTop" x1="512" y1="290" x2="512" y2="497" gradientUnits="userSpaceOnUse">
      <stop offset="0%" stop-color="#9B59B6"/>
      <stop offset="100%" stop-color="#6C3483"/>
    </linearGradient>
    <linearGradient id="ballBottom" x1="512" y1="503" x2="512" y2="710" gradientUnits="userSpaceOnUse">
      <stop offset="0%" stop-color="#F5F5F5"/>
      <stop offset="100%" stop-color="#D0D0D0"/>
    </linearGradient>
    <linearGradient id="crownGrad" x1="512" y1="240" x2="512" y2="340" gradientUnits="userSpaceOnUse">
      <stop offset="0%" stop-color="#FFF5C0"/>
      <stop offset="40%" stop-color="#FFD700"/>
      <stop offset="100%" stop-color="#B8860B"/>
    </linearGradient>
    <!-- プレビュー背景 -->
    <radialGradient id="splashBg" cx="512" cy="500" r="500" gradientUnits="userSpaceOnUse">
      <stop offset="0%" stop-color="#1E1428"/>
      <stop offset="50%" stop-color="#0E0918"/>
      <stop offset="100%" stop-color="#000000"/>
    </radialGradient>
    <filter id="glow">
      <feGaussianBlur stdDeviation="8" result="blur"/>
      <feMerge>
        <feMergeNode in="blur"/>
        <feMergeNode in="SourceGraphic"/>
      </feMerge>
    </filter>
    <filter id="shadow">
      <feDropShadow dx="0" dy="4" stdDeviation="6" flood-color="#000" flood-opacity="0.5"/>
    </filter>
  </defs>

  <!-- プレビュー用背景（実際のスプラッシュ風） -->
  <rect x="-100" y="-50" width="1224" height="1124" fill="url(#splashBg)"/>

  <!-- トロフィー台座 -->
  <g filter="url(#shadow)">
    <!-- 台座の柱（上部） -->
    <path d="M430 750 L450 920 L574 920 L594 750 Z" fill="url(#goldGrad)"/>
    <!-- 柱のハイライト -->
    <path d="M460 760 L470 910 L554 910 L564 760 Z" fill="none" stroke="#FFE88A" stroke-width="1.5" stroke-opacity="0.4"/>
    <!-- 柱の中央ライン -->
    <rect x="490" y="760" width="44" height="155" rx="2" fill="#8B6914" fill-opacity="0.3"/>

    <!-- 台座上部プレート -->
    <path d="M400 740 L410 760 L614 760 L624 740 Z" fill="url(#goldGrad)"/>
    <path d="M405 742 L412 755 L612 755 L619 742 Z" fill="none" stroke="#FFE88A" stroke-width="1" stroke-opacity="0.3"/>

    <!-- 台座ベース（下部の広い台） -->
    <path d="M380 920 L390 960 L634 960 L644 920 Z" fill="url(#goldGrad)"/>
    <!-- ベースのハイライト -->
    <path d="M395 925 L402 955 L622 955 L629 925 Z" fill="none" stroke="#FFE88A" stroke-width="1.5" stroke-opacity="0.35"/>
    <!-- ベースの装飾ライン -->
    <rect x="420" y="932" width="184" height="4" rx="2" fill="#8B6914" fill-opacity="0.4"/>

    <!-- 台座最下部（一番広い部分） -->
    <path d="M360 960 L365 985 L659 985 L664 960 Z" fill="url(#goldGrad)"/>
    <path d="M368 963 L372 982 L652 982 L656 963 Z" fill="none" stroke="#FFE88A" stroke-width="1" stroke-opacity="0.25"/>
  </g>

  <!-- 下部V字（紫翼） -->
  <path d="M512 920 L180 480 L280 420 L512 720 L744 420 L844 480 Z" fill="url(#purpleGrad)" filter="url(#shadow)"/>
  <path d="M512 860 L230 490 L290 450 L512 690 L734 450 L794 490 Z" fill="none" stroke="#BB7FD6" stroke-width="2" stroke-opacity="0.4"/>
  <path d="M512 920 L320 560 L380 520 L512 740 L644 520 L704 560 Z" fill="url(#darkGrad)" fill-opacity="0.7"/>

  <!-- 金のV字翼 -->
  <path d="M100 440 L240 340 L420 460 L360 500 L240 420 L140 490 Z" fill="url(#goldShine)" filter="url(#shadow)"/>
  <path d="M120 450 L240 360 L400 465 L360 490 L240 400 L155 460 Z" fill="none" stroke="#FFF5C0" stroke-width="2" stroke-opacity="0.5"/>
  <path d="M924 440 L784 340 L604 460 L664 500 L784 420 L884 490 Z" fill="url(#goldShine)" filter="url(#shadow)"/>
  <path d="M904 450 L784 360 L624 465 L664 490 L784 400 L869 460 Z" fill="none" stroke="#FFF5C0" stroke-width="2" stroke-opacity="0.5"/>
  <path d="M60 420 L180 300 L260 360 L160 440 Z" fill="url(#goldGrad)" filter="url(#shadow)"/>
  <path d="M964 420 L844 300 L764 360 L864 440 Z" fill="url(#goldGrad)" filter="url(#shadow)"/>

  <!-- マスターボール -->
  <circle cx="512" cy="497" r="210" fill="url(#goldGrad)" filter="url(#shadow)"/>
  <circle cx="512" cy="497" r="193" fill="#222"/>
  <clipPath id="topHalf"><rect x="312" y="290" width="400" height="207"/></clipPath>
  <circle cx="512" cy="497" r="188" fill="url(#ballTop)" clip-path="url(#topHalf)"/>
  <clipPath id="bottomHalf"><rect x="312" y="503" width="400" height="200"/></clipPath>
  <circle cx="512" cy="497" r="188" fill="url(#ballBottom)" clip-path="url(#bottomHalf)"/>
  <text x="512" y="468" text-anchor="middle" font-family="Arial Black, Impact, sans-serif" font-weight="900" font-size="130" fill="white" stroke="white" stroke-width="1" letter-spacing="-5">M</text>
  <circle cx="415" cy="410" r="16" fill="#FF69B4" fill-opacity="0.9"/>
  <circle cx="609" cy="410" r="16" fill="#FF69B4" fill-opacity="0.9"/>
  <circle cx="415" cy="410" r="9" fill="#FFB6D9" fill-opacity="0.6"/>
  <circle cx="609" cy="410" r="9" fill="#FFB6D9" fill-opacity="0.6"/>
  <rect x="322" y="489" width="380" height="16" rx="8" fill="#1A1A1A"/>
  <circle cx="512" cy="497" r="42" fill="#1A1A1A"/>
  <circle cx="512" cy="497" r="33" fill="#F0F0F0" filter="url(#glow)"/>
  <circle cx="512" cy="497" r="22" fill="#E8E8E8"/>
  <circle cx="505" cy="490" r="9" fill="white" fill-opacity="0.6"/>
  <ellipse cx="462" cy="390" rx="55" ry="28" fill="white" fill-opacity="0.15" transform="rotate(-20 462 390)"/>

  <!-- 王冠 -->
  <g filter="url(#shadow)" transform="translate(512, 310) scale(0.55) translate(-512, -310)">
    <path d="M400 310 L420 220 L466 280 L512 180 L558 280 L604 220 L624 310 Z" fill="url(#crownGrad)"/>
    <rect x="400" y="300" width="224" height="28" rx="4" fill="url(#goldGrad)"/>
    <rect x="408" y="310" width="208" height="4" rx="2" fill="#8B6914" fill-opacity="0.5"/>
    <circle cx="420" cy="218" r="12" fill="#FFD700" filter="url(#glow)"/>
    <circle cx="512" cy="178" r="14" fill="#FFD700" filter="url(#glow)"/>
    <circle cx="604" cy="218" r="12" fill="#FFD700" filter="url(#glow)"/>
    <circle cx="440" cy="304" r="8" fill="#9B59B6"/>
    <circle cx="512" cy="304" r="10" fill="#9B59B6"/>
    <circle cx="584" cy="304" r="8" fill="#9B59B6"/>
  </g>

  <!-- 星の装飾 -->
  <g fill="#FFD700" fill-opacity="0.8" filter="url(#glow)">
    <circle cx="400" cy="270" r="4"/>
    <circle cx="624" cy="270" r="4"/>
    <circle cx="375" cy="295" r="3"/>
    <circle cx="649" cy="295" r="3"/>
  </g>

  <!-- 🎊 チャンピオン紙吹雪 大量！！！ 🎊 -->
  <!-- 上方エリア -->
  <rect x="120" y="30" width="16" height="13" rx="2" fill="#FFD700" fill-opacity="0.9" transform="rotate(25 120 30)"/>
  <rect x="300" y="60" width="14" height="12" rx="2" fill="#9B59B6" fill-opacity="0.85" transform="rotate(-40 300 60)"/>
  <rect x="480" y="20" width="15" height="13" rx="2" fill="#FF69B4" fill-opacity="0.8" transform="rotate(55 480 20)"/>
  <rect x="650" y="50" width="16" height="13" rx="2" fill="#FFE88A" fill-opacity="0.85" transform="rotate(-20 650 50)"/>
  <rect x="830" y="35" width="14" height="12" rx="2" fill="#BB7FD6" fill-opacity="0.8" transform="rotate(42 830 35)"/>
  <rect x="200" y="90" width="13" height="11" rx="2" fill="white" fill-opacity="0.7" transform="rotate(-60 200 90)"/>
  <rect x="420" y="80" width="15" height="12" rx="2" fill="#D4A017" fill-opacity="0.85" transform="rotate(18 420 80)"/>
  <rect x="720" y="90" width="14" height="12" rx="2" fill="#FF69B4" fill-opacity="0.75" transform="rotate(-35 720 90)"/>
  <rect x="900" y="80" width="13" height="11" rx="2" fill="#FFD700" fill-opacity="0.8" transform="rotate(70 900 80)"/>
  <rect x="50" y="70" width="15" height="13" rx="2" fill="#C8961E" fill-opacity="0.8" transform="rotate(-48 50 70)"/>

  <!-- 上部〜中部 -->
  <rect x="80" y="150" width="15" height="13" rx="2" fill="#FFD700" fill-opacity="0.85" transform="rotate(32 80 150)"/>
  <rect x="250" y="170" width="14" height="12" rx="2" fill="#9B59B6" fill-opacity="0.8" transform="rotate(-55 250 170)"/>
  <rect x="380" y="140" width="16" height="13" rx="2" fill="#FFE88A" fill-opacity="0.85" transform="rotate(12 380 140)"/>
  <rect x="560" y="160" width="13" height="11" rx="2" fill="white" fill-opacity="0.65" transform="rotate(-28 560 160)"/>
  <rect x="700" y="150" width="15" height="13" rx="2" fill="#FF69B4" fill-opacity="0.8" transform="rotate(48 700 150)"/>
  <rect x="870" y="170" width="14" height="12" rx="2" fill="#D4A017" fill-opacity="0.8" transform="rotate(-15 870 170)"/>
  <rect x="950" y="140" width="13" height="11" rx="2" fill="#BB7FD6" fill-opacity="0.75" transform="rotate(65 950 140)"/>
  <rect x="30" y="200" width="14" height="12" rx="2" fill="#FFD700" fill-opacity="0.8" transform="rotate(-38 30 200)"/>
  <rect x="170" y="240" width="15" height="13" rx="2" fill="#FF69B4" fill-opacity="0.75" transform="rotate(52 170 240)"/>
  <rect x="850" y="230" width="16" height="13" rx="2" fill="#FFE88A" fill-opacity="0.8" transform="rotate(-22 850 230)"/>

  <!-- 左サイド -->
  <rect x="20" y="320" width="15" height="13" rx="2" fill="#9B59B6" fill-opacity="0.8" transform="rotate(40 20 320)"/>
  <rect x="60" y="450" width="14" height="12" rx="2" fill="#FFD700" fill-opacity="0.85" transform="rotate(-62 60 450)"/>
  <rect x="30" y="560" width="16" height="13" rx="2" fill="#FF69B4" fill-opacity="0.75" transform="rotate(28 30 560)"/>
  <rect x="80" y="650" width="13" height="11" rx="2" fill="white" fill-opacity="0.6" transform="rotate(-45 80 650)"/>
  <rect x="50" y="750" width="15" height="13" rx="2" fill="#D4A017" fill-opacity="0.8" transform="rotate(55 50 750)"/>

  <!-- 右サイド -->
  <rect x="970" y="320" width="14" height="12" rx="2" fill="#FFE88A" fill-opacity="0.8" transform="rotate(-35 970 320)"/>
  <rect x="940" y="440" width="15" height="13" rx="2" fill="#BB7FD6" fill-opacity="0.8" transform="rotate(50 940 440)"/>
  <rect x="980" y="560" width="14" height="12" rx="2" fill="#FFD700" fill-opacity="0.8" transform="rotate(-18 980 560)"/>
  <rect x="950" y="670" width="16" height="13" rx="2" fill="#FF69B4" fill-opacity="0.7" transform="rotate(72 950 670)"/>
  <rect x="990" y="760" width="13" height="11" rx="2" fill="#C8961E" fill-opacity="0.75" transform="rotate(-55 990 760)"/>

  <!-- メインエリア紙吹雪 -->
  <rect x="255" y="200" width="14" height="12" rx="2" fill="#D4A017" fill-opacity="0.85" transform="rotate(35 255 200)"/>
  <rect x="715" y="260" width="12" height="10" rx="2" fill="#FFD700" fill-opacity="0.8" transform="rotate(-25 715 260)"/>
  <rect x="695" y="530" width="14" height="12" rx="2" fill="#FFE88A" fill-opacity="0.8" transform="rotate(-40 695 530)"/>
  <rect x="545" y="230" width="13" height="11" rx="2" fill="#FFD700" fill-opacity="0.85" transform="rotate(-50 545 230)"/>
  <rect x="375" y="345" width="12" height="11" rx="2" fill="#D4A017" fill-opacity="0.7" transform="rotate(-18 375 345)"/>
  <rect x="225" y="305" width="10" height="9" rx="2" fill="#FFD700" fill-opacity="0.75" transform="rotate(-65 225 305)"/>
  <rect x="675" y="445" width="12" height="10" rx="2" fill="#C8961E" fill-opacity="0.6" transform="rotate(30 675 445)"/>
  <rect x="310" y="260" width="13" height="11" rx="2" fill="#FFD700" fill-opacity="0.75" transform="rotate(8 310 260)"/>
  <rect x="780" y="350" width="12" height="11" rx="2" fill="#FFD700" fill-opacity="0.65" transform="rotate(-48 780 350)"/>
  <rect x="745" y="365" width="13" height="11" rx="2" fill="#9B59B6" fill-opacity="0.8" transform="rotate(50 745 365)"/>
  <rect x="290" y="335" width="12" height="10" rx="2" fill="#BB7FD6" fill-opacity="0.75" transform="rotate(-30 290 335)"/>
  <rect x="735" y="495" width="11" height="10" rx="2" fill="#7D3C98" fill-opacity="0.65" transform="rotate(38 735 495)"/>
  <rect x="755" y="455" width="11" height="10" rx="2" fill="#FF69B4" fill-opacity="0.7" transform="rotate(20 755 455)"/>
  <rect x="230" y="545" width="12" height="10" rx="2" fill="#FF69B4" fill-opacity="0.75" transform="rotate(-55 230 545)"/>
  <rect x="685" y="325" width="12" height="10" rx="2" fill="#FF69B4" fill-opacity="0.7" transform="rotate(-12 685 325)"/>
  <rect x="655" y="220" width="11" height="10" rx="2" fill="white" fill-opacity="0.65" transform="rotate(-15 655 220)"/>
  <rect x="340" y="485" width="10" height="9" rx="2" fill="white" fill-opacity="0.55" transform="rotate(45 340 485)"/>
  <rect x="775" y="545" width="11" height="10" rx="2" fill="white" fill-opacity="0.5" transform="rotate(18 775 545)"/>
  <rect x="385" y="245" width="9" height="8" rx="2" fill="white" fill-opacity="0.6" transform="rotate(-38 385 245)"/>

  <!-- ボール上の紙吹雪 -->
  <rect x="470" y="420" width="12" height="10" rx="2" fill="#FFD700" fill-opacity="0.7" transform="rotate(22 470 420)"/>
  <rect x="560" y="540" width="11" height="9" rx="2" fill="#D4A017" fill-opacity="0.6" transform="rotate(-55 560 540)"/>
  <rect x="530" y="460" width="11" height="9" rx="2" fill="#9B59B6" fill-opacity="0.55" transform="rotate(70 530 460)"/>
  <rect x="480" y="470" width="10" height="9" rx="2" fill="#FF69B4" fill-opacity="0.5" transform="rotate(42 480 470)"/>
  <rect x="555" y="510" width="11" height="9" rx="2" fill="#FFB6D9" fill-opacity="0.5" transform="rotate(-60 555 510)"/>
  <rect x="520" y="380" width="10" height="8" rx="2" fill="white" fill-opacity="0.45" transform="rotate(15 520 380)"/>

  <!-- 下部エリア -->
  <rect x="150" y="750" width="15" height="13" rx="2" fill="#FFD700" fill-opacity="0.8" transform="rotate(38 150 750)"/>
  <rect x="300" y="780" width="14" height="12" rx="2" fill="#9B59B6" fill-opacity="0.75" transform="rotate(-22 300 780)"/>
  <rect x="450" y="760" width="16" height="13" rx="2" fill="#FFE88A" fill-opacity="0.8" transform="rotate(60 450 760)"/>
  <rect x="580" y="780" width="14" height="12" rx="2" fill="#FF69B4" fill-opacity="0.7" transform="rotate(-42 580 780)"/>
  <rect x="720" y="750" width="15" height="13" rx="2" fill="#D4A017" fill-opacity="0.8" transform="rotate(15 720 750)"/>
  <rect x="860" y="770" width="13" height="11" rx="2" fill="white" fill-opacity="0.6" transform="rotate(-58 860 770)"/>
  <rect x="200" y="850" width="14" height="12" rx="2" fill="#BB7FD6" fill-opacity="0.75" transform="rotate(45 200 850)"/>
  <rect x="400" y="870" width="15" height="13" rx="2" fill="#FFD700" fill-opacity="0.8" transform="rotate(-30 400 870)"/>
  <rect x="600" y="850" width="14" height="12" rx="2" fill="#C8961E" fill-opacity="0.75" transform="rotate(68 600 850)"/>
  <rect x="800" y="860" width="16" height="13" rx="2" fill="#FF69B4" fill-opacity="0.7" transform="rotate(-15 800 860)"/>
  <rect x="100" y="920" width="14" height="12" rx="2" fill="#FFD700" fill-opacity="0.75" transform="rotate(52 100 920)"/>
  <rect x="350" y="940" width="13" height="11" rx="2" fill="#9B59B6" fill-opacity="0.7" transform="rotate(-38 350 940)"/>
  <rect x="550" y="950" width="15" height="13" rx="2" fill="#FFE88A" fill-opacity="0.75" transform="rotate(25 550 950)"/>
  <rect x="750" y="930" width="14" height="12" rx="2" fill="white" fill-opacity="0.55" transform="rotate(-62 750 930)"/>
  <rect x="920" y="940" width="13" height="11" rx="2" fill="#D4A017" fill-opacity="0.7" transform="rotate(40 920 940)"/>
  <rect x="425" y="695" width="12" height="10" rx="2" fill="#C8961E" fill-opacity="0.7" transform="rotate(25 425 695)"/>
  <rect x="650" y="700" width="11" height="10" rx="2" fill="#FFE88A" fill-opacity="0.65" transform="rotate(-33 650 700)"/>
  <rect x="245" y="645" width="12" height="10" rx="2" fill="#9B59B6" fill-opacity="0.65" transform="rotate(-22 245 645)"/>
  <rect x="585" y="675" width="13" height="11" rx="2" fill="#BB7FD6" fill-opacity="0.7" transform="rotate(15 585 675)"/>
  <rect x="490" y="580" width="13" height="11" rx="2" fill="#FFE88A" fill-opacity="0.65" transform="rotate(38 490 580)"/>
  <rect x="635" y="575" width="11" height="10" rx="2" fill="white" fill-opacity="0.55" transform="rotate(-48 635 575)"/>
  <rect x="345" y="445" width="11" height="10" rx="2" fill="#FFB6D9" fill-opacity="0.6" transform="rotate(48 345 445)"/>
  <rect x="565" y="295" width="10" height="9" rx="2" fill="#FF69B4" fill-opacity="0.65" transform="rotate(-35 565 295)"/>
  <rect x="465" y="305" width="11" height="9" rx="2" fill="#7D3C98" fill-opacity="0.65" transform="rotate(-42 465 305)"/>
  <rect x="600" y="250" width="10" height="9" rx="2" fill="#9B59B6" fill-opacity="0.6" transform="rotate(-52 600 250)"/>

</svg>
